<svg width="64" height="64" viewBox="0 0 64 64" fill="none" xmlns="http://www.w3.org/2000/svg">
<path d="M29.3333 16C32.2789 16 34.6667 13.6122 34.6667 10.6666C34.6667 7.72113 32.2789 5.33331 29.3333 5.33331C26.3878 5.33331 24 7.72113 24 10.6666C24 13.6122 26.3878 16 29.3333 16Z" stroke="white" stroke-width="5" stroke-linecap="round" stroke-linejoin="round"/>
<path d="M48 26.6666C50.9455 26.6666 53.3333 24.2788 53.3333 21.3333C53.3333 18.3878 50.9455 16 48 16C45.0545 16 42.6667 18.3878 42.6667 21.3333C42.6667 24.2788 45.0545 26.6666 48 26.6666Z" stroke="white" stroke-width="5" stroke-linecap="round" stroke-linejoin="round"/>
<path d="M53.3333 48C56.2788 48 58.6667 45.6122 58.6667 42.6666C58.6667 39.7211 56.2788 37.3333 53.3333 37.3333C50.3878 37.3333 48 39.7211 48 42.6666C48 45.6122 50.3878 48 53.3333 48Z" stroke="white" stroke-width="5" stroke-linecap="round" stroke-linejoin="round"/>
<path d="M24 26.6666C25.751 26.6666 27.4848 27.0115 29.1024 27.6816C30.7201 28.3516 32.19 29.3338 33.4281 30.5719C34.6662 31.81 35.6483 33.2799 36.3184 34.8975C36.9885 36.5152 37.3333 38.249 37.3333 40V49.3333C37.3326 51.5639 36.5331 53.7204 35.0795 55.4124C33.626 57.1043 31.6145 58.2197 29.4096 58.5566C27.2046 58.8934 24.9519 58.4295 23.0594 57.2487C21.167 56.068 19.76 54.2486 19.0933 52.12C17.9556 48.4489 15.5556 46.0444 11.8933 44.9066C9.76582 44.2403 7.94711 42.8344 6.76629 40.9434C5.58548 39.0523 5.12057 36.8011 5.4557 34.597C5.79082 32.3929 6.90384 30.3816 8.59335 28.927C10.2829 27.4723 12.4372 26.6705 14.6667 26.6666H24Z" stroke="white" stroke-width="5" stroke-linecap="round" stroke-linejoin="round"/>
</svg>
