<svg width="64" height="64" viewBox="0 0 64 64" fill="none" xmlns="http://www.w3.org/2000/svg">
<path d="M25.3333 33.3334L20 28M33.3333 25.3334L28 20M41.3333 17.3334L36 12M17.3333 41.3334L12 36M7.19998 40.8C6.60333 41.3946 6.12992 42.1011 5.8069 42.8791C5.48388 43.657 5.3176 44.491 5.3176 45.3334C5.3176 46.1757 5.48388 47.0097 5.8069 47.7877C6.12992 48.5656 6.60333 49.2721 7.19998 49.8667L14.1333 56.8C14.7279 57.3967 15.4344 57.8701 16.2123 58.1931C16.9903 58.5161 17.8243 58.6824 18.6666 58.6824C19.509 58.6824 20.343 58.5161 21.1209 58.1931C21.8989 57.8701 22.6054 57.3967 23.2 56.8L56.8 23.2C57.9985 21.9957 58.6713 20.3658 58.6713 18.6667C58.6713 16.9676 57.9985 15.3377 56.8 14.1334L49.8666 7.20002C48.6623 6.00151 47.0324 5.32867 45.3333 5.32867C43.6342 5.32867 42.0043 6.00151 40.8 7.20002L7.19998 40.8Z" stroke="white" stroke-width="4" stroke-linecap="round" stroke-linejoin="round"/>
</svg>
