<svg width="52" height="55" viewBox="0 0 52 55" fill="none" xmlns="http://www.w3.org/2000/svg">
<path d="M27.4933 11.5467C29.3274 8.61633 30.6275 5.38412 31.3333 2C32.6667 8.66667 36.6667 15.0667 42 19.3333C47.3333 23.6 50 28.6667 50 34C50.0152 37.6861 48.9357 41.2937 46.8981 44.3656C44.8606 47.4374 41.9569 49.8351 38.555 51.2546C35.1532 52.6742 31.4065 53.0518 27.7898 52.3394C24.1731 51.6271 20.8494 49.8569 18.24 47.2533M12.6667 37.4133C18.5333 37.4133 23.3333 32.5333 23.3333 26.6133C23.3333 23.52 21.8133 20.5867 18.7733 18.1067C15.7333 15.6267 13.44 11.9467 12.6667 8.08C11.8933 11.9467 9.62667 15.6533 6.56 18.1067C3.49333 20.56 2 23.5467 2 26.6133C2 32.5333 6.8 37.4133 12.6667 37.4133Z" stroke="white" stroke-width="4" stroke-linecap="round" stroke-linejoin="round"/>
</svg>
