<svg width="30" height="30" viewBox="0 0 30 30" fill="none" xmlns="http://www.w3.org/2000/svg">
<path d="M5.42785 8.00001L7.54671 17.8933C7.67681 18.4998 8.01427 19.042 8.50099 19.4265C8.98771 19.811 9.59325 20.0138 10.2134 20H23.2534C23.8603 19.999 24.4487 19.7911 24.9214 19.4105C25.3941 19.0299 25.7229 18.4994 25.8534 17.9067L28.0534 8.00001H5.42785Z" fill="white"/>
<path d="M1.33337 1.33334H4.00004L5.42785 8.00001M5.42671 8.00001H5.42785M5.42785 8.00001L7.54671 17.8933C7.67681 18.4998 8.01427 19.042 8.50099 19.4265C8.98771 19.811 9.59325 20.0138 10.2134 20H23.2534C23.8603 19.999 24.4487 19.7911 24.9214 19.4105C25.3941 19.0299 25.7229 18.4994 25.8534 17.9067L28.0534 8.00001H5.42785ZM10.6 26.6C10.6 27.3364 10.0031 27.9333 9.26671 27.9333C8.53033 27.9333 7.93337 27.3364 7.93337 26.6C7.93337 25.8636 8.53033 25.2667 9.26671 25.2667C10.0031 25.2667 10.6 25.8636 10.6 26.6ZM25.2667 26.6C25.2667 27.3364 24.6698 27.9333 23.9334 27.9333C23.197 27.9333 22.6 27.3364 22.6 26.6C22.6 25.8636 23.197 25.2667 23.9334 25.2667C24.6698 25.2667 25.2667 25.8636 25.2667 26.6Z" stroke="white" stroke-width="2.66667" stroke-linecap="round" stroke-linejoin="round"/>
</svg>
