<svg width="22" height="27" viewBox="0 0 22 27" fill="none" xmlns="http://www.w3.org/2000/svg">
<path d="M10.6667 12C13.6122 12 16 9.6122 16 6.66668C16 3.72116 13.6122 1.33334 10.6667 1.33334C7.72119 1.33334 5.33337 3.72116 5.33337 6.66668C5.33337 9.6122 7.72119 12 10.6667 12Z" fill="white"/>
<path d="M20 25.3333V22.6667C20 21.2522 19.4381 19.8956 18.4379 18.8954C17.4377 17.8952 16.0812 17.3333 14.6667 17.3333H6.66671C5.25222 17.3333 3.89567 17.8952 2.89547 18.8954C1.89528 19.8956 1.33337 21.2522 1.33337 22.6667V25.3333H10.6667H20Z" fill="white"/>
<path d="M10.6667 12C13.6122 12 16 9.6122 16 6.66668C16 3.72116 13.6122 1.33334 10.6667 1.33334C7.72119 1.33334 5.33337 3.72116 5.33337 6.66668C5.33337 9.6122 7.72119 12 10.6667 12Z" stroke="white" stroke-width="2.66667" stroke-linecap="round" stroke-linejoin="round"/>
<path d="M20 25.3333V22.6667C20 21.2522 19.4381 19.8956 18.4379 18.8954C17.4377 17.8952 16.0812 17.3333 14.6667 17.3333H6.66671C5.25222 17.3333 3.89567 17.8952 2.89547 18.8954C1.89528 19.8956 1.33337 21.2522 1.33337 22.6667V25.3333H10.6667H20Z" stroke="white" stroke-width="2.66667" stroke-linecap="round" stroke-linejoin="round"/>
</svg>
